<?xml version="1.0" encoding="UTF-8"?>
<svg id="Layer_1" xmlns="http://www.w3.org/2000/svg" version="1.1" viewBox="0 0 2056.1 205.3">
  <!-- Generator: Adobe Illustrator 29.0.0, SVG Export Plug-In . SVG Version: 2.1.0 Build 186)  -->
  <defs>
    <style>
      .st0 {
        fill: #ffcce1;
      }
    </style>
  </defs>
  <path class="st0" d="M1730.5-990.8c-17.2-26.7-42-48.4-73.5-56.5-84.5-21.9-173.4-29.2-260.6-25.5-88.7,3.7-176.8,17.2-264.4,30.6-38.6,5.9-77.2,12-115.9,17.5-237.5,29.7-475.1,8.7-712.2-16.5-228.4-24.2-458.5-49.9-688.3-29.4-134.9,12-269.1,36.4-395.7,85.5-16,3.8-29.9,11.1-41.8,22-13.4,8.7-24,20.2-31.7,34.5-15.4,26.4-22,65.2-12.4,94.8,9.6,29.8,28.1,58.5,56.5,73.5,27.6,14.6,64.4,24.2,94.8,12.4,88.6-34.3,181-57,274.9-70.8,209.3-25.6,420.8-10,629.8,11.5,228.5,23.5,457.9,53.5,688.1,41.2,129.8-6.9,257.6-31,386.2-48.9,88-11.2,177-17.6,265.4-8.1,20.8,3.4,41.4,7.6,61.9,12.9,31.2,8.1,66.8,4,94.8-12.4,25.5-14.9,49.9-44.2,56.5-73.5,7.2-31.5,5.6-66.8-12.4-94.8h0Z"/>
  <path class="st0" d="M2321.7,53.4c-17.2-16.4-42-29.6-73.5-34.6-84.5-13.4-173.4-17.9-260.6-15.6-88.7,2.3-176.8,10.5-264.4,18.8-38.6,3.6-77.2,7.4-115.9,10.7-237.5,18.2-475.1,5.3-712.2-10.1C666.8,7.7,436.6-8,206.9,4.6,72,11.9-62.2,26.9-188.8,56.9c-16,2.3-29.9,6.8-41.8,13.5-13.4,5.3-24,12.4-31.7,21.1-15.4,16.1-22,39.9-12.4,58,9.6,18.2,28.1,35.8,56.5,45,27.6,8.9,64.4,14.8,94.8,7.6,88.6-21,181-34.9,274.9-43.3,209.3-15.7,420.8-6.1,629.8,7,228.5,14.4,457.9,32.7,688.1,25.2,129.8-4.2,257.6-18.9,386.2-30,88-6.9,177-10.8,265.4-5,20.8,2.1,41.4,4.7,61.9,7.9,31.2,4.9,66.8,2.4,94.8-7.6,25.5-9.1,49.9-27,56.5-45,7.2-19.3,5.6-40.9-12.4-58h0Z"/>
</svg>