<?xml version="1.0" encoding="UTF-8"?>
<svg id="Layer_1" xmlns="http://www.w3.org/2000/svg" version="1.1" viewBox="0 0 1938.9 619.3">
  <!-- Generator: Adobe Illustrator 29.0.0, SVG Export Plug-In . SVG Version: 2.1.0 Build 186)  -->
  <defs>
    <style>
      .st0 {
        fill: #ffcce1;
      }
    </style>
  </defs>
  <path class="st0" d="M2748.7-1257.7c-3.3-7.9-6.6-15.8-10-23.6-8.8-14.9-20.6-26.7-35.5-35.5-7.5-3.2-14.9-6.3-22.4-9.4,12.2-12.1,21.6-26.9,26.3-43.8,6.5-23.7,3.6-55.2-10-76.3-13.6-21.1-33.9-39.8-59.2-45.5-25.3-5.8-53.8-4.5-76.3,10-156.6,100.8-312.2,203.1-469.8,302.3-36.6,23-73.9,45-113.3,62.8-26.2,10.2-53,18.1-80.7,23-28.3,2.7-56.6,2.2-84.9-.7-55.1-9-108.3-26.5-160-47.5-71.7-31.2-140.6-68.4-212.4-99.3-44.1-19-88.6-37.3-134.9-50.3-44.2-12.4-90.2-20.1-136-22.9-40.9-2.5-80.9,1.7-121.3,7.6-32.4,4.7-64.3,12.6-95.1,23.5-77.3,27.3-146,67.2-208.3,120.4-34.1,29.1-62.4,62.6-89.3,98.2-22.3,29.4-40.9,61.4-55.6,95.2-7.2,11.4-11.2,23.6-11.8,36.8-2.9,13.2-2.4,26.3,1.8,39.5,4.6,16.8,15.3,34.6,29.1,47.4-8.4,11.6-16,23.8-22,36.8-6.3,13.8-12.6,27.9-17.2,42.3-4.1,13.2-4.7,26.3-1.8,39.5.6,13.2,4.5,25.4,11.8,36.8,6.2,11.5,14.7,20.8,25.5,27.8,2.1,1.9,4.2,3.7,6.5,5.3-19.9,20.7-38,43-55.5,66.2-22.3,29.4-40.9,61.4-55.6,95.2-7.2,11.4-11.1,23.6-11.8,36.8-2.9,13.2-2.4,26.3,1.8,39.5,6.3,23,24.1,47.8,45.5,59.2,23,12.1,50.8,18.2,76.3,10,22.8-7.4,49.2-22.4,59.2-45.5,13.7-31.5,30.8-61.2,51-88.9,21.7-26.5,46-50.7,72.6-72.3,29.6-21.6,61.3-40.2,94.7-55.3,33.4-13.1,68.1-22.7,103.5-28.5,32.2-3.3,64.5-3.4,96.7-.1,53.1,8.7,104.4,25.4,154.2,45.7,82.6,35.8,162.1,78.3,245.2,113.2,88.1,36.9,183.2,64,279.5,62,50.9-1.1,102.7-9.8,150.7-27.2,47-17,92-38.9,135-64.2,79.7-47,156.4-99.3,234.2-149.3,91.2-58.7,182.4-117.4,273.6-176.2,21.5-13.8,38.6-34.1,45.5-59.2,5.4-19.5,4.3-44.4-3.8-64.3,5.8-5.5,10.7-11.9,14.7-19.3,5.5-8.6,9.1-17.8,10.7-27.5,5.1-2.3,10.1-4.6,15.1-7,11.5-6.2,20.8-14.7,27.8-25.5,8.8-9.6,14.7-20.8,17.7-33.7,4.1-13.2,4.7-26.3,1.8-39.5-.5-10-2.8-19.5-7.2-28.5,18-8.6,33.7-22,44-39.5,7.2-11.4,11.1-23.6,11.8-36.8,2.9-13.2,2.4-26.3-1.8-39.5h0Z"/>
  <path class="st0" d="M2185.7,498.5c-1.3-27.4-12-49.2-31.3-70-26.1-28.1-58.5-49-93.8-65.3,6.7-6,12.3-12.7,16.4-19.8,10.5-18.3,16.7-39.8,14.3-60.6,11-4.8,21-11.2,28.7-18.9,18.7-18.9,32.6-43.6,31.3-70-1.3-27.4-12-49.2-31.3-70-36.2-39-84.6-64.1-135.8-82.2-43.3-15.3-91.8-21.1-137.9-21.8-100.4-1.6-195.5,28.7-289.5,57.5-48.1,14.7-96.5,28.2-146.6,35.7-59.4,5.9-119.1,4-178.4-2.6-84-11.5-166.5-30.8-249-49.5-94.4-21.4-188.6-39.6-285.1-50.5C519.3-9.6,337.5-.1,161.5,33.2,66.5,51.2-26.6,77.3-116.4,111.2c-13.9,3.1-26,9-36.4,17.7-11.6,7-20.8,16.2-27.5,27.8-13.4,21.2-19.1,52.5-10.8,76.3,8.4,24,24.4,47.1,49.1,59.2,4.5,2.2,9.4,4.3,14.5,6.2-7.5,19.3-9.6,42.4-3.1,60.9,8,22.8,22.8,44.7,45.5,57.3-12.6,3.2-23.7,8.9-33.3,17-11.6,7-20.8,16.2-27.5,27.8-13.4,21.2-19.1,52.5-10.8,76.3,8.4,24,24.4,47.1,49.1,59.2,23.7,11.6,56.4,19.8,82.4,10,119-44.9,243.7-75.9,370.8-92.9,129.7-14.9,261.1-15,390.8-.2,139.7,19,274.7,58.5,413.2,83.1,78,13.8,158,24.1,237.5,22.5,80.1-1.7,158.6-15.9,234.7-38.4,69-20.3,137.3-45.1,209-56.2,26.1-2.4,52.3-2.7,78.4-.5,16.1,2.7,32,6.5,47.4,11.6,9.1,4.2,17.9,8.9,26.4,14.1,7.1,5.9,13.8,12.1,20,18.9,17,18.4,50.3,29,75.6,29s57.6-10.8,75.6-29c18.7-18.9,32.6-43.6,31.3-70Z"/>
</svg>