<?xml version="1.0" encoding="UTF-8"?>
<svg id="Layer_1" data-name="Layer 1" xmlns="http://www.w3.org/2000/svg" viewBox="0 0 2056.1 205.31">
  <defs>
    <style>
      .cls-1 {
        fill: #ffcce1;
      }
    </style>
  </defs>
  <path class="cls-1" d="M2321.72,53.4c-17.23-16.36-42.03-29.61-73.51-34.59-84.52-13.4-173.44-17.87-260.55-15.63-88.65,2.28-176.79,10.52-264.39,18.75-38.61,3.63-77.2,7.36-115.88,10.71-237.52,18.19-475.14,5.31-712.21-10.08C666.81,7.73,436.64-7.98,206.89,4.58,72.03,11.95-62.19,26.87-188.78,56.89c-16.01,2.33-29.95,6.82-41.83,13.48-13.39,5.31-23.95,12.35-31.68,21.12-15.43,16.13-21.96,39.92-12.4,58.01,9.63,18.22,28.07,35.79,56.52,44.99,27.56,8.91,64.42,14.79,94.78,7.59,88.6-21.01,181.04-34.89,274.94-43.33,209.29-15.68,420.78-6.12,629.76,7.02,228.47,14.37,457.89,32.73,688.05,25.24,129.84-4.23,257.63-18.95,386.18-29.95,88.02-6.87,177.02-10.8,265.43-4.95,20.8,2.05,41.43,4.65,61.85,7.9,31.18,4.95,66.82,2.42,94.78-7.59,25.51-9.14,49.85-27.04,56.52-44.99,7.17-19.27,5.62-40.9-12.4-58.01h0Z"/>
</svg>