<?xml version="1.0" encoding="UTF-8"?>
<svg id="Layer_1" data-name="Layer 1" xmlns="http://www.w3.org/2000/svg" viewBox="0 0 1955.98 335.42">
  <defs>
    <style>
      .cls-1 {
        fill: #ffcce1;
      }
    </style>
  </defs>
  <path class="cls-1" d="M2284.7,87.24c-17.23-26.73-42.03-48.37-73.51-56.52-84.52-21.89-173.44-29.19-260.55-25.54-88.65,3.72-176.79,17.19-264.39,30.64-38.61,5.93-77.2,12.02-115.88,17.49-237.52,29.72-475.14,8.67-712.21-16.47C629.79,12.63,399.62-13.04,169.87,7.48,35.01,19.52-99.21,43.9-225.8,92.95c-16.01,3.81-29.95,11.14-41.83,22.02-13.39,8.67-23.95,20.18-31.68,34.51-15.43,26.36-21.96,65.22-12.4,94.78,9.63,29.76,28.07,58.47,56.52,73.51,27.56,14.56,64.42,24.16,94.78,12.4,88.6-34.33,181.04-57,274.94-70.79,209.29-25.62,420.78-10,629.76,11.47,228.47,23.48,457.89,53.48,688.05,41.23,129.84-6.91,257.63-30.96,386.18-48.94,88.02-11.22,177.02-17.64,265.43-8.09,20.8,3.35,41.43,7.6,61.85,12.9,31.18,8.08,66.82,3.96,94.78-12.4,25.51-14.93,49.85-44.18,56.52-73.51,7.17-31.49,5.62-66.83-12.4-94.78Z"/>
</svg>